<svg width="29" height="21" viewBox="0 0 29 21" fill="none" xmlns="http://www.w3.org/2000/svg">
<path fill-rule="evenodd" clip-rule="evenodd" d="M21.958 20.137L19.384 18.7261L18.5381 20.0641H2.51666C0.868555 20.0641 -0.14581 18.3595 0.708693 17.0266L8.33737 5.13764C9.15 3.87044 11.0864 3.85064 11.9286 5.10074L18.1221 14.2937L20.0254 11.3098C20.8171 10.0678 22.7003 10.0111 23.5738 11.2036L27.7892 16.9591C28.755 18.2785 27.7683 20.0821 26.0726 20.0983L22.0028 20.137C21.9875 20.137 21.9733 20.137 21.958 20.137ZM19.2137 3.03074C19.2137 1.69784 20.3185 0.616943 21.6802 0.616943C23.0419 0.616943 24.1457 1.69784 24.1457 3.03074C24.1457 4.36454 23.0419 5.44544 21.6802 5.44544C20.3185 5.44544 19.2137 4.36454 19.2137 3.03074Z" fill="#202020"/>
</svg>
