<svg width="100" height="20" viewBox="0 0 100 20" fill="none" xmlns="http://www.w3.org/2000/svg">
<g clip-path="url(#clip0_73_71)">
<g clip-path="url(#clip1_73_71)">
<path fill-rule="evenodd" clip-rule="evenodd" d="M7.1512 15.4879C6.30264 15.4879 5.48948 15.3178 4.71113 14.9782C3.93297 14.6382 3.24311 14.1491 2.64174 13.5099C2.04714 12.8706 1.57285 12.0907 1.21887 11.1693C0.864688 10.2486 0.6875 9.20991 0.6875 8.05435C0.6875 6.8988 0.861308 5.85017 1.20892 4.90847C1.55614 3.96717 2.037 3.1567 2.65169 2.47665C3.2537 1.80783 3.98779 1.27621 4.80579 0.916673C5.63426 0.549309 6.51901 0.366032 7.46103 0.366032C8.16222 0.366032 8.7966 0.454329 9.36456 0.631125C9.93424 0.808443 10.4797 1.0583 10.9879 1.37476L11.3987 0.681957H12.201L12.2914 5.83802H11.4689C11.362 5.33537 11.2017 4.79 10.9877 4.2025C10.7741 3.61479 10.5237 3.11701 10.2368 2.70955C9.91621 2.24781 9.53558 1.88571 9.0945 1.62447C8.65382 1.36282 8.14989 1.23199 7.58233 1.23199C6.93443 1.23199 6.33148 1.37821 5.77406 1.67064C5.21644 1.96287 4.734 2.39464 4.32672 2.96553C3.93953 3.51657 3.63527 4.21708 3.41493 5.06663C3.19459 5.91659 3.08441 6.86498 3.08441 7.91198C3.08441 8.83627 3.19976 9.6844 3.43004 10.456C3.66053 11.2276 3.98945 11.906 4.41701 12.4905C4.84417 13.0687 5.35028 13.5205 5.93454 13.8469C6.51881 14.1734 7.17148 14.3364 7.89316 14.3364C8.43407 14.3364 8.93163 14.2497 9.38584 14.0766C9.84004 13.9032 10.2338 13.6742 10.5679 13.3888C10.9029 13.0885 11.1992 12.7461 11.4495 12.3698C11.7063 11.9832 11.915 11.5656 12.0705 11.1265L12.8226 11.4933C12.2481 12.9271 11.4868 13.951 10.5383 14.5654C9.58928 15.1805 8.46072 15.4879 7.1512 15.4879ZM18.61 15.1412H13.8358V14.4688C13.9898 14.4555 14.1482 14.4417 14.3125 14.4279C14.476 14.4146 14.6182 14.3874 14.7385 14.3469C14.9256 14.2858 15.0644 14.1788 15.1549 14.0259C15.2452 13.8737 15.2901 13.675 15.2901 13.4308V7.23234C15.2901 7.01524 15.2414 6.81698 15.145 6.63694C15.0465 6.45538 14.9072 6.30014 14.7385 6.18391C14.6114 6.10271 14.4279 6.03304 14.187 5.97532C13.9464 5.91781 13.7257 5.88216 13.525 5.86839V5.19604L17.0153 4.97165L17.1555 5.11443V13.3074C17.1555 13.545 17.2004 13.742 17.2899 13.8982C17.3798 14.0547 17.5206 14.1701 17.7135 14.2445C17.8528 14.3034 17.9958 14.3528 18.1416 14.3923C18.2812 14.4298 18.4372 14.4555 18.61 14.4688V15.1412ZM25.9411 14.7032C25.5364 14.8753 25.1248 15.03 24.7074 15.1669C24.3198 15.2925 23.8451 15.3555 23.2835 15.3555C22.4542 15.3555 21.8708 15.1428 21.5333 14.7186C21.1956 14.2941 21.0268 13.6944 21.0268 12.92V6.11303H19.2418V5.13448H21.0671V2.00661H22.8921V5.13468H25.7305V6.11324H22.9124V11.728C22.9124 12.1492 22.9273 12.5006 22.9575 12.7825C22.9876 13.0644 23.0594 13.3107 23.1729 13.5211C23.2801 13.7181 23.4406 13.8674 23.6544 13.9694C23.8683 14.0715 24.1559 14.1223 24.517 14.1223C24.6841 14.1223 24.9299 14.107 25.2542 14.0764C25.5784 14.046 25.8073 14.0069 25.9411 13.9593V14.7032ZM32.6884 9.57768C32.1198 9.74779 31.6219 9.91467 31.1941 10.0781C30.7752 10.2368 30.3749 10.4423 30.0005 10.6909C29.666 10.9222 29.402 11.1964 29.2083 11.5131C29.0142 11.8297 28.9175 12.2057 28.9175 12.6411C28.9175 13.2066 29.0631 13.6215 29.3536 13.8872C29.6446 14.1529 30.0139 14.2854 30.4619 14.2854C30.9366 14.2854 31.3546 14.1681 31.7155 13.933C32.0767 13.6983 32.3808 13.421 32.6283 13.1006L32.6884 9.57768ZM36.1884 14.9579C35.9154 15.0595 35.6395 15.153 35.3611 15.2382C35.1237 15.3095 34.855 15.3453 34.5537 15.3453C34.0325 15.3453 33.6161 15.2212 33.3051 14.9733C32.9942 14.7254 32.7954 14.3637 32.7083 13.8882H32.648C32.2135 14.3771 31.7474 14.751 31.2492 15.0088C30.7513 15.267 30.1509 15.3962 29.4487 15.3962C28.7067 15.3962 28.0966 15.1651 27.6185 14.7032C27.1407 14.2414 26.9016 13.6369 26.9016 12.8894C26.9016 12.5022 26.9549 12.1557 27.0621 11.8501C27.1682 11.5457 27.3317 11.2654 27.5434 11.0249C27.7104 10.8209 27.9312 10.6391 28.2056 10.4795C28.4792 10.3199 28.7368 10.1925 28.9778 10.0975C29.2785 9.9817 29.8886 9.76784 30.8079 9.45556C31.7271 9.14308 32.3477 8.89864 32.6683 8.72185V7.71291C32.6683 7.62461 32.65 7.4547 32.613 7.20338C32.5766 6.95322 32.4968 6.71163 32.3774 6.48992C32.2435 6.2388 32.0548 6.01947 31.8108 5.83255C31.567 5.64583 31.2208 5.55227 30.7729 5.55227C30.4653 5.55227 30.1791 5.60492 29.9152 5.71023C29.6513 5.81574 29.4658 5.92611 29.3584 6.04155C29.3584 6.17743 29.3904 6.37772 29.4539 6.64282C29.5175 6.90771 29.5491 7.15214 29.5491 7.37633C29.5491 7.61429 29.4441 7.83158 29.2333 8.02863C29.0227 8.22588 28.7302 8.3241 28.3559 8.3241C28.0214 8.3241 27.7756 8.20361 27.6185 7.96241C27.4616 7.72142 27.3831 7.45126 27.3831 7.15235C27.3831 6.83986 27.4915 6.54075 27.7086 6.2554C27.926 5.97006 28.2086 5.71549 28.5564 5.49151C28.8575 5.30115 29.2216 5.13974 29.6497 5.0073C30.0773 4.87485 30.4953 4.80883 30.9034 4.80883C31.465 4.80883 31.9546 4.84792 32.3726 4.92588C32.7852 5.00193 33.1748 5.17455 33.5107 5.43015C33.8517 5.68127 34.1107 6.02291 34.2883 6.45407C34.4652 6.88563 34.5539 7.44093 34.5539 8.12037C34.5539 9.09164 34.5438 9.95294 34.5235 10.7035C34.5036 11.4542 34.4937 12.2744 34.4937 13.1642C34.4937 13.4293 34.5386 13.6402 34.6289 13.7961C34.7192 13.9524 34.858 14.0851 35.0451 14.1936C35.1456 14.2546 35.3043 14.2888 35.5214 14.2955C35.7437 14.3024 35.966 14.3058 36.1884 14.3056V14.9579ZM42.9713 14.7032C42.5666 14.8753 42.155 15.03 41.7375 15.1669C41.3497 15.2925 40.8753 15.3555 40.3137 15.3555C39.4844 15.3555 38.9009 15.1428 38.5634 14.7186C38.2258 14.2941 38.0567 13.6944 38.0567 12.92V6.11303H36.2717V5.13448H38.0969V2.00661H39.9223V5.13468H42.7605V6.11324H39.9426V11.728C39.9426 12.1492 39.9575 12.5006 39.9873 12.7825C40.0177 13.0644 40.0891 13.3107 40.2031 13.5211C40.3099 13.7181 40.4708 13.8674 40.6845 13.9694C40.8985 14.0715 41.1861 14.1223 41.547 14.1223C41.7141 14.1223 41.9597 14.107 42.2844 14.0764C42.6082 14.046 42.8372 14.0069 42.9713 13.9593V14.7032ZM48.7479 15.1412H43.974V14.4688C44.1328 14.4549 44.2916 14.4413 44.4504 14.4279C44.6141 14.4146 44.7561 14.3874 44.8768 14.3469C45.0637 14.2858 45.2023 14.1788 45.2928 14.0259C45.3831 13.8737 45.4281 13.675 45.4281 13.4308V7.23234C45.4281 7.01524 45.3795 6.81698 45.2829 6.63694C45.1845 6.4554 45.0454 6.30016 44.8768 6.18391C44.7495 6.10271 44.566 6.03304 44.325 5.97532C44.0843 5.91781 43.8636 5.88216 43.6633 5.86839V5.19604L47.1534 4.97165L47.2938 5.11443V13.3074C47.2938 13.545 47.3383 13.742 47.4278 13.8982C47.5179 14.0547 47.6587 14.1701 47.8514 14.2445C47.9976 14.3058 48.1402 14.3552 48.2798 14.3923C48.4332 14.4321 48.5899 14.4578 48.7479 14.4688V15.1412ZM57.2352 10.0362C57.2352 9.52685 57.1849 8.98856 57.0847 8.42111C56.9843 7.85406 56.8333 7.37309 56.6325 6.97919C56.4181 6.55796 56.1367 6.21996 55.7883 5.9652C55.4401 5.71043 55.0149 5.58325 54.5126 5.58325C53.9963 5.58325 53.5562 5.71246 53.1911 5.97026C52.8262 6.22867 52.5297 6.58186 52.3022 7.03003C52.0878 7.44458 51.9369 7.91705 51.8498 8.44663C51.7647 8.95492 51.7211 9.46952 51.7193 9.98514C51.7193 10.6374 51.771 11.2405 51.8752 11.794C51.9789 12.3477 52.1447 12.842 52.3724 13.2764C52.6001 13.7116 52.8863 14.0527 53.2315 14.3006C53.5765 14.5488 54.0035 14.6726 54.5126 14.6726C55.3494 14.6726 56.013 14.2615 56.5018 13.4397C56.9906 12.6179 57.2352 11.4834 57.2352 10.0362ZM59.3114 10.0159C59.3114 10.7227 59.201 11.4169 58.9803 12.0998C58.7593 12.7823 58.4445 13.3617 58.0363 13.837C57.5745 14.3808 57.039 14.7848 56.43 15.0499C55.8211 15.3146 55.1384 15.4472 54.3817 15.4472C53.7527 15.4472 53.1537 15.3265 52.585 15.0855C52.016 14.8445 51.5105 14.4927 51.0686 14.0308C50.6337 13.5755 50.2873 13.0203 50.0298 12.3645C49.7725 11.7092 49.6434 10.9736 49.6434 10.1585C49.6434 8.589 50.0934 7.30545 50.9935 6.30664C51.8939 5.30803 53.0732 4.80883 54.5325 4.80883C55.9178 4.80883 57.061 5.28272 57.9611 6.23049C58.8612 7.17786 59.3114 8.43994 59.3114 10.0159ZM71.3493 15.1412H66.5151V14.4688C66.6688 14.4555 66.8376 14.4417 67.0214 14.4279C67.2055 14.4146 67.3575 14.3874 67.4782 14.3465C67.6651 14.2856 67.8037 14.1784 67.8942 14.0253C67.9845 13.8726 68.0294 13.674 68.0294 13.4295V8.26335C68.0294 7.54968 67.864 6.99965 67.5323 6.61244C67.2001 6.22523 66.7963 6.03162 66.3206 6.03162C65.9652 6.03162 65.6403 6.08772 65.3455 6.19971C65.0506 6.3119 64.7895 6.44941 64.5614 6.61244C64.3399 6.76858 64.1643 6.93707 64.0336 7.11691C63.9028 7.29694 63.8073 7.44113 63.7473 7.54968V13.3275C63.7473 13.5587 63.794 13.7487 63.8875 13.8982C63.9809 14.048 64.1213 14.1633 64.3091 14.2445C64.4491 14.3125 64.6014 14.3633 64.7648 14.3974C64.9287 14.4318 65.0976 14.4555 65.2716 14.4688V15.1412H60.4272V14.4688C60.5811 14.4555 60.74 14.4417 60.9039 14.4279C61.0676 14.4146 61.2095 14.3874 61.3303 14.3469C61.5172 14.2858 61.6562 14.1788 61.7463 14.0259C61.8366 13.8737 61.8815 13.675 61.8815 13.4308V7.23234C61.8815 7.00188 61.8328 6.78964 61.7363 6.59624C61.6421 6.4063 61.5025 6.24354 61.3303 6.12296C61.203 6.04155 61.0524 5.98221 60.8788 5.94474C60.6936 5.90606 60.506 5.88055 60.3172 5.86839V5.19604L63.6067 4.97165L63.7473 5.11443V6.53082H63.7974C63.9579 6.3676 64.1581 6.17237 64.3991 5.94495C64.6398 5.71752 64.8669 5.53242 65.081 5.38944C65.3284 5.22642 65.6228 5.09073 65.9636 4.98198C66.3049 4.87343 66.6889 4.81896 67.117 4.81896C68.0664 4.81896 68.7702 5.11949 69.228 5.72076C69.686 6.32183 69.915 7.12197 69.915 8.12037V13.3481C69.915 13.5857 69.9554 13.7775 70.0354 13.9237C70.1155 14.0697 70.2527 14.1835 70.4466 14.2649C70.6071 14.3332 70.7455 14.3806 70.8628 14.4077C70.9798 14.4348 71.1418 14.4555 71.3493 14.4688V15.1412ZM79.0921 10.2197C79.3659 10.4643 79.5765 10.7462 79.7238 11.0656C79.8704 11.3847 79.9442 11.7756 79.9442 12.2373C79.9442 13.1681 79.6017 13.9289 78.9165 14.5197C78.2308 15.111 77.3432 15.4063 76.2537 15.4063C75.6783 15.4063 75.1484 15.301 74.6637 15.0904C74.1789 14.8798 73.8331 14.6861 73.6259 14.5094L73.425 15.172H72.6733L72.5729 11.6766H73.2649C73.3184 11.9427 73.432 12.2529 73.606 12.6073C73.7746 12.9543 73.987 13.2774 74.2378 13.5685C74.4983 13.8682 74.8111 14.1209 75.1754 14.3253C75.5399 14.5298 75.9494 14.6321 76.4038 14.6321C77.0459 14.6321 77.5405 14.4832 77.8883 14.1861C78.2359 13.8888 78.4097 13.4632 78.4097 12.9099C78.4097 12.6245 78.3547 12.3783 78.2443 12.1707C78.1341 11.9637 77.972 11.7823 77.7579 11.6259C77.5375 11.4696 77.2667 11.3286 76.9455 11.2031C76.5923 11.0661 76.2345 10.9421 75.8726 10.8311C75.558 10.7359 75.2088 10.6052 74.8246 10.4388C74.4398 10.2723 74.1107 10.0767 73.8363 9.8529C73.5403 9.61307 73.2948 9.31498 73.1144 8.97641C72.927 8.63011 72.8336 8.22244 72.8336 7.75382C72.8336 6.93181 73.1345 6.23515 73.7364 5.66466C74.3382 5.09397 75.1438 4.80863 76.1534 4.80863C76.5408 4.80863 76.9372 4.85986 77.3416 4.96153C77.7461 5.06339 78.0753 5.18571 78.3296 5.32849L78.5603 4.7985H79.2826L79.4325 8.02863H78.7405C78.6003 7.30565 78.2976 6.71754 77.833 6.26371C77.3685 5.81007 76.8015 5.58325 76.1331 5.58325C75.5847 5.58325 75.1535 5.7236 74.8397 6.00388C74.5251 6.28456 74.368 6.62317 74.368 7.0201C74.368 7.3257 74.4197 7.58047 74.5235 7.7844C74.6269 7.98793 74.7827 8.16128 74.9901 8.30385C75.1903 8.43974 75.4427 8.56712 75.7471 8.686C76.0514 8.80488 76.4273 8.93915 76.8753 9.0886C77.3024 9.22541 77.7196 9.39221 78.124 9.5878C78.5149 9.77817 78.8381 9.98879 79.0921 10.2197ZM80.6865 18.4226C80.6865 18.0827 80.7784 17.8061 80.962 17.5918C81.1459 17.378 81.375 17.2711 81.6492 17.2711C81.8628 17.2711 82.0468 17.3116 82.2007 17.3924C82.3538 17.4729 82.4927 17.5788 82.6118 17.7057C82.712 17.8069 82.8186 17.9452 82.9323 18.1204C83.0459 18.2954 83.1362 18.4404 83.2034 18.555C83.5375 18.3717 83.9368 17.894 84.4015 17.1212C84.8659 16.3488 85.2018 15.6708 85.4094 15.0879C84.8409 13.6456 84.266 12.2059 83.6848 10.7689C83.1698 9.4989 82.632 8.18477 82.0706 6.82629C81.9436 6.51381 81.7294 6.271 81.4287 6.09805C81.1276 5.92449 80.8267 5.81412 80.5261 5.76673V5.09397H85.0407V5.80744C84.8404 5.81412 84.5994 5.85685 84.3188 5.93502C84.0378 6.01279 83.8976 6.10271 83.8976 6.20457C83.8976 6.24507 83.9125 6.31312 83.9428 6.4083C83.9726 6.50308 84.008 6.6015 84.048 6.70357C84.3011 7.37552 84.6883 8.34456 85.2079 9.61028C85.7286 10.876 86.1317 11.8892 86.4186 12.6494C86.7195 11.9232 87.0327 11.1717 87.3573 10.3944C87.6818 9.61697 88.0453 8.69876 88.4466 7.64021C88.4932 7.511 88.5604 7.33299 88.6475 7.10557C88.7348 6.87834 88.7781 6.68332 88.7781 6.52029C88.7781 6.3437 88.6258 6.17905 88.3218 6.02615C88.0175 5.87346 87.7281 5.7805 87.4545 5.74628V5.09397H91.1269V5.72582C90.9263 5.76005 90.662 5.8771 90.3343 6.07739C90.0069 6.27788 89.7629 6.5614 89.6024 6.92836C88.8066 8.80326 88.0994 10.5117 87.4814 12.0538C86.8629 13.596 86.3932 14.7305 86.0722 15.4573C85.6508 16.4083 85.2748 17.1504 84.9438 17.684C84.6129 18.217 84.2902 18.6368 83.9762 18.9424C83.6683 19.2276 83.3895 19.4194 83.1385 19.518C82.888 19.6164 82.6287 19.6658 82.3614 19.6658C81.84 19.6658 81.4301 19.5399 81.1328 19.2887C80.8351 19.0376 80.6865 18.7488 80.6865 18.4226ZM99.8772 4.0984C99.8772 4.35013 99.8068 4.53341 99.6664 4.64884C99.5258 4.76448 99.3456 4.82179 99.1249 4.82179C98.9777 4.82179 98.6249 4.74889 98.0669 4.60307C97.5081 4.45665 96.8817 4.34325 96.1865 4.26163C96.4871 4.68286 96.7679 5.03423 97.0288 5.31613C97.2894 5.59824 97.5063 5.83437 97.6807 6.02453C97.8611 6.22158 98.0017 6.39473 98.1017 6.54399C98.2021 6.69385 98.2521 6.85323 98.2521 7.02294C98.2521 7.20662 98.1719 7.3662 98.0114 7.50209C97.8509 7.63818 97.6807 7.70582 97.4999 7.70582C97.3785 7.70557 97.2598 7.66833 97.1593 7.59889C97.0521 7.52741 96.9616 7.42736 96.8882 7.29836C96.7812 7.10111 96.6759 6.78539 96.572 6.35058C96.4686 5.91599 96.2395 5.27725 95.8854 4.43478C95.5644 5.24302 95.3405 5.88358 95.2136 6.35565C95.0865 6.82771 94.9758 7.14202 94.8825 7.29836C94.7954 7.43405 94.7069 7.53591 94.6164 7.60375C94.5261 7.6718 94.4108 7.70582 94.2704 7.70582C94.0835 7.70582 93.9112 7.64122 93.7543 7.51222C93.5968 7.38301 93.5183 7.22039 93.5183 7.02294C93.5183 6.85991 93.5652 6.70701 93.6589 6.56464C93.7523 6.42167 93.8961 6.24183 94.0904 6.02453C94.2575 5.84774 94.4796 5.60674 94.757 5.30074C95.0344 4.99514 95.3103 4.64864 95.5847 4.26163C94.929 4.32947 94.3193 4.43985 93.7543 4.59275C93.189 4.74544 92.8197 4.82179 92.6461 4.82179C92.4253 4.82179 92.2448 4.7661 92.1046 4.6537C91.964 4.54191 91.8938 4.35702 91.8938 4.0984C91.8938 3.86754 91.964 3.68932 92.1046 3.56376C92.2448 3.4382 92.4255 3.37502 92.6461 3.37502C92.8465 3.37502 93.1991 3.4465 93.704 3.58887C94.2085 3.73185 94.8356 3.84019 95.5847 3.91513C95.3276 3.5598 95.0531 3.21793 94.7622 2.8908C94.5414 2.64168 94.3174 2.39547 94.0904 2.15222C93.9029 1.94849 93.7607 1.77352 93.6638 1.6273C93.569 1.48833 93.5182 1.32309 93.5183 1.15382C93.5183 0.970138 93.5988 0.810757 93.7589 0.674869C93.9198 0.538778 94.0904 0.470935 94.2706 0.470935C94.3911 0.470935 94.5029 0.50516 94.6067 0.5728C94.7103 0.640846 94.8024 0.742914 94.8825 0.878397C94.9758 1.04142 95.0997 1.40696 95.2536 1.97401C95.4073 2.54126 95.6177 3.13058 95.8854 3.74177C96.1864 3.04896 96.4052 2.44283 96.5424 1.92298C96.6792 1.40312 96.7944 1.05519 96.8884 0.878397C96.9616 0.749597 97.0503 0.649149 97.1541 0.577863C97.256 0.507073 97.3767 0.469755 97.4999 0.470935C97.6871 0.470935 97.8593 0.535335 98.0168 0.66454C98.1735 0.793543 98.2521 0.956568 98.2521 1.15382C98.2521 1.43208 98.0667 1.75833 97.6956 2.13197C97.3247 2.50582 96.8214 3.0998 96.1863 3.91513C96.9081 3.83351 97.5351 3.72334 98.0667 3.58401C98.5983 3.44488 98.9507 3.37502 99.1249 3.37502C99.3456 3.37502 99.5258 3.43618 99.6662 3.5585C99.8068 3.68061 99.8772 3.86085 99.8772 4.0984ZM47.4951 1.63155C47.4951 2.01877 47.3698 2.35676 47.1188 2.64515C46.8682 2.93434 46.5588 3.07853 46.1911 3.07853C45.8502 3.07853 45.5543 2.94082 45.3036 2.6658C45.053 2.39079 44.9277 2.07648 44.9277 1.72329C44.9277 1.34965 45.053 1.0236 45.3036 0.745142C45.5543 0.466682 45.8502 0.327148 46.1911 0.327148C46.5723 0.327148 46.8847 0.458176 47.1289 0.719422C47.373 0.981073 47.4951 1.28505 47.4951 1.63155ZM17.3704 1.63155C17.3704 2.01877 17.2452 2.35676 16.9944 2.64515C16.7438 2.93434 16.4344 3.07853 16.0667 3.07853C15.7256 3.07853 15.4299 2.94082 15.1792 2.6658C14.9284 2.39079 14.8033 2.07648 14.8033 1.72329C14.8033 1.34965 14.9284 1.0236 15.1792 0.745142C15.4295 0.466682 15.7256 0.327148 16.0667 0.327148C16.4477 0.327148 16.7601 0.458176 17.0045 0.719422C17.2485 0.981073 17.3704 1.28505 17.3704 1.63155Z" fill="black"/>
</g>
</g>
<defs>
<clipPath id="clip0_73_71">
<rect width="100" height="20" fill="white"/>
</clipPath>
<clipPath id="clip1_73_71">
<rect width="100" height="20" fill="white"/>
</clipPath>
</defs>
</svg>
