<svg width="107" height="22" viewBox="0 0 107 22" fill="none" xmlns="http://www.w3.org/2000/svg">
<g clip-path="url(#clip0_73_58)">
<path d="M4.90259 7.21777V11.538H0.660156L4.90259 7.21777Z" fill="black"/>
<path d="M4.90259 12.833H0.660156V17.1532H4.90259V12.833Z" fill="black"/>
<path d="M10.4183 1.60254V5.92278H6.17578L10.4183 1.60254Z" fill="black"/>
<path d="M10.4183 7.21777H6.17578V11.538H10.4183V7.21777Z" fill="black"/>
<path d="M10.4183 12.833H6.17578V17.1532H10.4183V12.833Z" fill="black"/>
<path d="M15.9338 1.60254H11.6914V5.92278H15.9338V1.60254Z" fill="black"/>
<path d="M15.9338 7.21777H11.6914V11.538H15.9338V7.21777Z" fill="black"/>
<path d="M15.9338 12.833H11.6914V17.1532H15.9338V12.833Z" fill="black"/>
<path fill-rule="evenodd" clip-rule="evenodd" d="M92.2214 0.303711V17.1526H94.9743V0.303711H92.2214ZM42.5021 15.3083V21.6889H39.7492V7.00009H42.5021V8.62841C42.8071 8.0987 43.1881 7.67113 43.6454 7.3457C44.2665 6.91368 44.9937 6.69767 45.8265 6.69767C46.6453 6.69767 47.4076 6.89927 48.1134 7.3025C48.8333 7.70573 49.4122 8.30335 49.8498 9.0954C50.2874 9.87305 50.5063 10.8307 50.5063 11.9684C50.5063 13.0916 50.2874 14.0493 49.8498 14.8413C49.4122 15.6334 48.8333 16.231 48.1134 16.6342C47.4076 17.0374 46.6453 17.2391 45.8265 17.2391C44.9937 17.2391 44.2665 17.023 43.6454 16.591C43.1881 16.2656 42.8071 15.838 42.5021 15.3083ZM42.5021 11.9684C42.5021 12.5732 42.6219 13.0844 42.8621 13.502C43.116 13.9197 43.4337 14.2365 43.8149 14.4525C44.2101 14.6541 44.6125 14.7549 45.0219 14.7549C45.5017 14.7549 45.9395 14.6469 46.3347 14.4309C46.7441 14.2149 47.0689 13.8981 47.3088 13.4804C47.5487 13.0628 47.6687 12.5588 47.6687 11.9684C47.6687 11.3779 47.5487 10.8739 47.3088 10.4563C47.0689 10.0387 46.7441 9.72184 46.3347 9.50583C45.9395 9.28981 45.5017 9.18181 45.0219 9.18181C44.6125 9.18181 44.2101 9.28981 43.8149 9.50583C43.4337 9.70743 43.116 10.0171 42.8621 10.4347C42.6219 10.8523 42.5021 11.3635 42.5021 11.9684ZM36.3592 7.00009H39.2178L32.8652 21.6889H30.049L32.5052 15.943L28.4609 7.00009H31.5101L33.9527 13.1624L36.3592 7.00009ZM56.5106 17.1526C57.6824 17.1526 58.6847 16.9222 59.5177 16.4614C60.3647 15.9862 61.0422 15.2805 61.5504 14.3445L59.1577 13.5884C58.8754 14.0637 58.5154 14.4237 58.0778 14.6685C57.6542 14.8989 57.1389 15.0141 56.5318 15.0141C55.9954 15.0141 55.5366 14.8917 55.1556 14.6469C54.7744 14.4021 54.4849 14.0493 54.2874 13.5884C54.1525 13.2497 54.067 12.8564 54.0313 12.4086L61.5504 12.5948C61.5646 12.5084 61.5716 12.3932 61.5716 12.2492C61.5856 12.1052 61.5929 11.9684 61.5929 11.8387C61.5929 10.7731 61.3951 9.86585 60.9998 9.117C60.6046 8.35377 60.0257 7.77773 59.2635 7.38891C58.5154 6.98568 57.6047 6.78407 56.5318 6.78407C55.4589 6.78407 54.5273 7.00009 53.7367 7.43211C52.9461 7.84973 52.3322 8.23135 51.8944 9.009C51.471 9.77223 51.2593 10.6867 51.2593 11.7523C51.2593 12.8036 51.471 13.7181 51.8944 14.4957C52.3322 15.2589 52.9461 16.0726 53.7367 16.5046C54.5273 16.9366 55.4519 17.1526 56.5106 17.1526ZM54.3086 10.1755C54.2449 10.3351 54.1915 10.5085 54.1482 10.6958L58.639 10.849C58.6104 10.4769 58.522 10.1516 58.3741 9.87305C58.2046 9.52743 57.9577 9.2538 57.633 9.0522C57.3084 8.8506 56.9272 8.74978 56.4896 8.74978C55.9532 8.74978 55.5013 8.8722 55.1344 9.117C54.7814 9.34742 54.5061 9.70024 54.3086 10.1755ZM63.0262 7.2161H65.7152V8.44704C65.9558 8.08561 66.2381 7.7833 66.5622 7.54012C67.0423 7.1657 67.5363 6.97848 68.0445 6.97848C68.3975 6.97848 68.7293 7.04329 69.0398 7.1729C69.3646 7.3025 69.6257 7.49691 69.8234 7.75613L68.574 10.1323C68.3905 9.95945 68.1998 9.82984 68.0023 9.74344C67.8186 9.64263 67.5857 9.59223 67.3034 9.59223C66.9646 9.59223 66.6753 9.68583 66.4354 9.87305C66.1953 10.0603 66.0118 10.3267 65.8847 10.6723C65.7719 11.0035 65.7152 11.4067 65.7152 11.8819V17.1526H63.0262V7.2161ZM85.0408 10.8019C85.0408 9.99546 84.928 9.31141 84.7021 8.74978C84.4904 8.17374 84.1586 7.74172 83.7068 7.45371C83.2552 7.15129 82.6693 7.00009 81.9493 7.00009C81.2858 7.00009 80.693 7.1441 80.1705 7.43211C79.6622 7.72012 79.2319 8.14495 78.8789 8.70658C78.6672 8.14495 78.3282 7.72012 77.8624 7.43211C77.3966 7.1441 76.8037 7.00009 76.0838 7.00009C75.4344 7.00009 74.8768 7.1441 74.411 7.43211C73.9451 7.72012 73.571 8.13776 73.2886 8.68498V7.2161H70.6418V17.1526H73.2886V11.1043C73.2886 10.6723 73.3593 10.3051 73.5003 10.0026C73.6416 9.68583 73.8391 9.45543 74.0932 9.31142C74.3473 9.15301 74.6439 9.0738 74.9826 9.0738C75.4909 9.0738 75.8578 9.24661 76.0838 9.59223C76.3097 9.92344 76.4225 10.4275 76.4225 11.1043V17.1526H79.1542V11.1043C79.1542 10.6723 79.2246 10.3051 79.3659 10.0026C79.507 9.68583 79.7047 9.45543 79.9588 9.31142C80.2129 9.15301 80.5092 9.0738 80.8482 9.0738C81.3565 9.0738 81.7234 9.24661 81.9493 9.59223C82.175 9.92344 82.2881 10.4275 82.2881 11.1043V17.1526H85.0408V10.8019ZM87.2774 7.40007V17.1526H89.9455V7.35927C89.5749 7.69584 89.1261 7.86413 88.599 7.86413C88.0937 7.86413 87.6531 7.70945 87.2774 7.40007ZM104.648 16.4614C103.815 16.9222 102.813 17.1526 101.641 17.1526C100.582 17.1526 99.6571 16.9366 98.8665 16.5046C98.0759 16.0726 97.4618 15.4749 97.0242 14.7117C96.6006 13.9341 96.3889 13.0196 96.3889 11.9684C96.3889 10.9027 96.6006 9.98825 97.0242 9.22501C97.4618 8.44737 98.0759 7.84973 98.8665 7.43211C99.6571 7.00009 100.589 6.78407 101.662 6.78407C102.735 6.78407 103.645 6.98568 104.394 7.38891C105.156 7.77773 105.735 8.35377 106.13 9.117C106.525 9.86585 106.723 10.7731 106.723 11.8387C106.723 11.9684 106.716 12.1052 106.702 12.2492C106.702 12.3932 106.695 12.5084 106.68 12.5948H99.1792C99.2218 12.9662 99.3011 13.2974 99.4169 13.5884C99.6146 14.0493 99.904 14.4021 100.286 14.6469C100.667 14.8917 101.126 15.0141 101.662 15.0141C102.269 15.0141 102.784 14.8989 103.208 14.6685C103.645 14.4237 104.005 14.0637 104.288 13.5884L106.68 14.3445C106.172 15.2805 105.495 15.9862 104.648 16.4614ZM99.2419 10.8667C99.2903 10.613 99.3557 10.3826 99.4382 10.1755C99.6359 9.70024 99.9112 9.34742 100.264 9.117C100.632 8.8722 101.083 8.74978 101.62 8.74978C102.057 8.74978 102.438 8.8506 102.763 9.0522C103.088 9.2538 103.335 9.52743 103.504 9.87305C103.654 10.156 103.743 10.4872 103.771 10.8667H99.2419Z" fill="black"/>
<path d="M87.4675 5.57613C87.1427 5.27371 86.9805 4.8993 86.9805 4.45287C86.9805 3.99205 87.1427 3.61761 87.4675 3.3296C87.7922 3.02719 88.1804 2.87598 88.6323 2.87598C89.0839 2.87598 89.465 3.02719 89.7756 3.3296C90.1003 3.61761 90.2626 3.99205 90.2626 4.45287C90.2626 4.8993 90.1003 5.27371 89.7756 5.57613C89.465 5.87855 89.0839 6.02976 88.6323 6.02976C88.1804 6.02976 87.7922 5.87855 87.4675 5.57613Z" fill="black"/>
<path fill-rule="evenodd" clip-rule="evenodd" d="M19.3262 1.60254H22.0838V8.72438C22.0225 8.83695 21.966 8.95434 21.9141 9.07656C21.6596 9.71019 21.5323 10.423 21.5323 11.2151H22.0838V17.1554H19.3262V1.60254ZM22.0838 11.2151V8.72438C22.3403 8.25331 22.6796 7.86667 23.102 7.56447C23.6253 7.19006 24.2687 7.00284 25.0323 7.00284C25.796 7.00284 26.4253 7.14686 26.9202 7.43487C27.4151 7.72287 27.7829 8.1549 28.0232 8.73094C28.2636 9.29257 28.3838 9.98381 28.3838 10.8046V17.1554H25.6263V11.2151C25.6263 10.5526 25.499 10.0486 25.2444 9.70299C25.0041 9.35737 24.5939 9.18456 24.0141 9.18456C23.6323 9.18456 23.2929 9.27097 22.9959 9.44378C22.699 9.60218 22.4726 9.8326 22.3172 10.135C22.1617 10.4374 22.0838 10.7975 22.0838 11.2151Z" fill="black"/>
<path d="M21.915 9.07581C21.6605 9.70944 21.5332 10.4223 21.5332 11.2144H22.0847V8.72363C22.0234 8.8362 21.9669 8.95359 21.915 9.07581Z" fill="black"/>
</g>
<defs>
<clipPath id="clip0_73_58">
<rect width="107" height="22" fill="white"/>
</clipPath>
</defs>
</svg>
