<svg width="97" height="26" viewBox="0 0 97 26" fill="none" xmlns="http://www.w3.org/2000/svg">
<path fill-rule="evenodd" clip-rule="evenodd" d="M96.3255 0H0.610752V2.45992H93.915V23.5334H3.02086L3.02165 14.6002H5.56094C6.24835 14.6002 6.83315 14.5008 7.31536 14.3019C7.79758 14.0925 8.18745 13.8203 8.48498 13.4854C8.7928 13.1504 9.01336 12.7683 9.14673 12.3391C9.29039 11.8994 9.36218 11.4545 9.36218 11.0043C9.36218 10.5437 9.29039 10.0988 9.14673 9.66963C9.01336 9.24042 8.7928 8.85832 8.48498 8.52333C8.18745 8.18835 7.79758 7.92141 7.31536 7.72252C6.83315 7.51316 6.24835 7.40847 5.56094 7.40847H0.605469V18.6201H0.609947V25.9932H96.3255V0ZM29.9281 11.1771H27.5889C27.5478 10.8944 27.4555 10.638 27.3118 10.4077C27.1682 10.1669 26.9886 9.95751 26.7732 9.77954C26.5577 9.60156 26.3116 9.46551 26.0345 9.37128C25.7677 9.26658 25.4856 9.21427 25.1881 9.21427C24.6443 9.21427 24.1826 9.32417 23.8029 9.54405C23.4234 9.75338 23.1156 10.0413 22.8795 10.4077C22.6438 10.7635 22.4692 11.1719 22.3564 11.6324C22.2539 12.093 22.2025 12.5693 22.2025 13.0613C22.2025 13.5325 22.2539 13.993 22.3564 14.4433C22.4692 14.8829 22.6438 15.2806 22.8795 15.6366C23.1156 15.9925 23.4234 16.2804 23.8029 16.5002C24.1826 16.7096 24.6443 16.8142 25.1881 16.8142C25.9268 16.8142 26.5013 16.5839 26.9117 16.1233C27.3324 15.6627 27.5889 15.0557 27.6812 14.3019H30.0204C29.9589 15.0033 29.7999 15.6366 29.5433 16.2018C29.2868 16.7672 28.9484 17.2487 28.5277 17.6465C28.107 18.0443 27.6145 18.3478 27.0503 18.5572C26.486 18.7666 25.8653 18.8713 25.1881 18.8713C24.3468 18.8713 23.5876 18.7247 22.9105 18.4316C22.2435 18.1281 21.6792 17.7145 21.2175 17.1911C20.7558 16.6677 20.402 16.0554 20.1557 15.3539C19.9094 14.6421 19.7863 13.8779 19.7863 13.0613C19.7863 12.2239 19.9094 11.4493 20.1557 10.7374C20.402 10.0151 20.7558 9.38696 21.2175 8.85312C21.6792 8.31921 22.2435 7.90048 22.9105 7.59689C23.5876 7.29332 24.3468 7.14153 25.1881 7.14153C25.7934 7.14153 26.3628 7.2305 26.8964 7.40847C27.44 7.58642 27.9224 7.84814 28.343 8.19363C28.7739 8.52861 29.1278 8.94735 29.4049 9.44983C29.6818 9.95231 29.8563 10.5281 29.9281 11.1771ZM3.02165 12.6845V9.32417H4.89918C5.1762 9.32417 5.44295 9.34512 5.69945 9.38696C5.95595 9.42887 6.18166 9.51262 6.37659 9.6382C6.57153 9.75338 6.72543 9.92087 6.83828 10.1407C6.9614 10.3606 7.02296 10.6484 7.02296 11.0043C7.02296 11.3602 6.9614 11.6481 6.83828 11.868C6.72543 12.0878 6.57153 12.2605 6.37659 12.3862C6.18166 12.5013 5.95595 12.5798 5.69945 12.6217C5.44295 12.6636 5.1762 12.6845 4.89918 12.6845H3.02165ZM12.4982 14.2861L13.9295 10.1721H13.9603L15.3453 14.2861H12.4982ZM12.7291 7.40847L8.57383 18.6201H11.0054L11.8673 16.1233H15.9762L16.8073 18.6201H19.3159L15.2068 7.40847H12.7291ZM31.6704 7.40847V18.6201H34.0866V15.0085L35.4716 13.5795L38.7803 18.6201H41.8121L37.103 11.8366L41.3967 7.40847H38.3802L34.0866 12.0564V7.40847H31.6704ZM42.7767 18.6201V7.40847H50.5023V9.48118H45.193V12.0721H49.7944V13.9878H45.193V18.6201H42.7767ZM51.8994 7.40847V18.6201H59.6712V16.5473H54.3156V7.40847H51.8994ZM61.022 18.6201V7.40847H69.24V9.48118H63.4381V11.8837H68.7629V13.7994H63.4381V16.5473H69.3632V18.6201H61.022ZM71.0011 7.40847V18.6201H79.3425V16.5473H73.4174V13.7994H78.7422V11.8837H73.4174V9.48118H79.2193V7.40847H71.0011ZM83.4121 18.6201V9.48118H80.1186V7.40847H89.1218V9.48118H85.8282V18.6201H83.4121Z" fill="black"/>
</svg>
