<svg width="85" height="18" viewBox="0 0 85 18" fill="none" xmlns="http://www.w3.org/2000/svg">
<path fill-rule="evenodd" clip-rule="evenodd" d="M39.4645 17.9318C43.152 17.9318 45.2218 15.213 45.2218 11.5054C45.2218 7.79791 43.152 5.07906 39.4882 5.07906C37.8468 5.07906 36.3954 5.89472 35.6818 7.10585V0.0615234H33.3741V17.7341H35.6818V15.8803C36.3954 17.1162 37.8705 17.9318 39.4645 17.9318ZM39.2028 15.8309C36.9664 15.8309 35.5152 14.1008 35.5152 11.5054C35.5152 8.91018 36.9664 7.18 39.2028 7.18C41.4154 7.18 42.8666 8.91018 42.8666 11.5054C42.8666 14.1008 41.4154 15.8309 39.2028 15.8309ZM25.4814 15.8803C27.2419 15.8803 28.3838 15.0894 28.717 13.6805H31.0246C30.5964 16.2511 28.4315 17.9318 25.4814 17.9318C21.7701 17.9318 19.4623 14.8917 19.4623 11.4313C19.4623 7.94621 21.556 5.07906 25.2434 5.07906C28.9548 5.07906 30.9293 7.82262 30.9293 10.9864C30.9293 11.3077 30.9057 11.7031 30.8818 11.9256H21.7224C21.9128 14.2737 23.3877 15.8803 25.4814 15.8803ZM28.5979 10.1708C28.4553 8.26758 27.2182 7.00698 25.2434 7.00698C23.364 7.00698 22.1508 8.09452 21.7939 10.1708H28.5979ZM18.7585 5.27679V7.35301H17.0218C14.8331 7.35301 14.1194 9.37976 14.1194 12.0987V17.7341H11.8117V5.27679H14.1194V7.67434C14.6666 6.0183 15.6182 5.27679 17.3073 5.27679H18.7585ZM46.9294 9.35507C47.1196 6.90812 49.2608 5.07906 52.0918 5.07906C55.1846 5.07906 57.2307 6.93283 57.2307 9.7011V17.7341H54.9229V15.7073C54.352 17.0421 52.8295 17.9318 51.0214 17.9318C48.5708 17.9318 46.9531 16.3994 46.9531 14.1749C46.9531 11.7773 48.7849 10.2943 51.616 10.2943H54.1142C54.6612 10.2943 54.9229 9.99775 54.9229 9.55278C54.9229 8.04508 53.8762 7.00698 52.0205 7.00698C50.3552 7.00698 49.1418 8.09452 49.0705 9.35507H46.9294ZM49.237 14.1255C49.237 15.2624 50.1412 16.0287 51.4733 16.0287C53.6621 16.0287 54.9229 14.5704 54.9229 12.2717V11.9751H51.8301C50.26 11.9751 49.237 12.8154 49.237 14.1255ZM59.9039 17.7341H62.2116V10.9864C62.2116 8.81132 63.544 7.22943 65.4233 7.22943C67.1125 7.22943 68.2306 8.56414 68.2306 10.5415V17.7341H70.5383V10.0719C70.5383 7.10585 68.7778 5.07906 66.0656 5.07906C64.2814 5.07906 62.8539 5.91943 62.2116 7.4766V5.27679H59.9039V17.7341ZM84.6054 17.7341H81.7505L77.4443 11.7773L75.9455 13.2109V17.7341H73.6141V0.0615234H75.9455V10.2449L81.1555 5.27679H84.1531L79.1099 10.1461L84.6054 17.7341ZM8.26535 15.4604H0.0527344V17.7418H8.26535V15.4604Z" fill="black"/>
</svg>
