<svg width="35" height="35" viewBox="0 0 35 35" fill="none" xmlns="http://www.w3.org/2000/svg">
<path d="M17.553 31.8806C25.3078 31.8806 31.5944 25.594 31.5944 17.8393C31.5944 10.0845 25.3078 3.79797 17.553 3.79797C9.79823 3.79797 3.51172 10.0845 3.51172 17.8393C3.51172 19.7755 3.90357 21.6201 4.61231 23.2981C5.004 24.2254 5.19985 24.6892 5.2241 25.0397C5.24835 25.3902 5.1452 25.7756 4.93891 26.5466L3.51172 31.8806L8.84569 30.4535C9.61672 30.2472 10.0022 30.144 10.3527 30.1683C10.7031 30.1924 11.1668 30.3883 12.0943 30.7801C13.7723 31.4887 15.6169 31.8806 17.553 31.8806Z" stroke="#075E54" stroke-width="2.1062" stroke-linejoin="round"/>
<path d="M12.7622 18.369L13.9851 16.8502C14.5005 16.2101 15.1376 15.6141 15.1876 14.7618C15.2001 14.5465 15.0488 13.5799 14.7457 11.6468C14.6267 10.8871 13.9174 10.8186 13.303 10.8186C12.5024 10.8186 12.1021 10.8186 11.7046 11.0002C11.2022 11.2297 10.6864 11.8749 10.5732 12.4156C10.4836 12.8433 10.5502 13.138 10.6833 13.7275C11.2487 16.2313 12.575 18.7039 14.6316 20.7606C16.6882 22.8172 19.1609 24.1435 21.6646 24.7088C22.2541 24.842 22.5488 24.9085 22.9766 24.8189C23.5172 24.7058 24.1624 24.19 24.392 23.6875C24.5736 23.29 24.5735 22.8898 24.5735 22.0892C24.5735 21.4747 24.505 20.7655 23.7453 20.6464C21.8122 20.3434 20.8457 20.192 20.6303 20.2045C19.778 20.2545 19.1821 20.8916 18.542 21.407L17.0231 22.6299" stroke="#075E54" stroke-width="2.1062"/>
</svg>
