<svg width="56" height="56" viewBox="0 0 56 56" fill="none" xmlns="http://www.w3.org/2000/svg">
<path d="M28.0002 50.5199C40.5922 50.5199 50.8002 40.3119 50.8002 27.7199C50.8002 15.1278 40.5922 4.91992 28.0002 4.91992C15.4081 4.91992 5.2002 15.1278 5.2002 27.7199C5.2002 30.8638 5.83647 33.859 6.9873 36.5839C7.62333 38.0896 7.94135 38.8427 7.98072 39.4118C8.0201 39.9809 7.85261 40.6067 7.51763 41.8587L5.2002 50.5199L13.8614 48.2025C15.1134 47.8676 15.7394 47.7 16.3084 47.7395C16.8775 47.7787 17.6304 48.0967 19.1364 48.7329C21.8612 49.8836 24.8563 50.5199 28.0002 50.5199Z" stroke="#DD4826" stroke-width="3.42" stroke-linejoin="round"/>
<path d="M20.2211 28.5801L22.2068 26.1138C23.0437 25.0743 24.0783 24.1067 24.1594 22.7227C24.1797 22.3731 23.9339 20.8036 23.4419 17.6647C23.2486 16.4311 22.0969 16.3198 21.0993 16.3198C19.7993 16.3198 19.1493 16.3198 18.5038 16.6147C17.688 16.9873 16.8504 18.0351 16.6666 18.9129C16.5212 19.6075 16.6293 20.0861 16.8454 21.0433C17.7634 25.1088 19.9171 29.1238 23.2565 32.4634C26.5961 35.8029 30.6112 37.9566 34.6766 38.8745C35.6338 39.0906 36.1123 39.1987 36.8071 39.0532C37.6849 38.8695 38.7325 38.032 39.1053 37.216C39.4001 36.5706 39.4001 35.9208 39.4001 34.6207C39.4001 33.623 39.2888 32.4713 38.0551 32.278C34.9163 31.786 33.3469 31.5402 32.9972 31.5605C31.6132 31.6417 30.6456 32.6761 29.6061 33.5131L27.1399 35.4987" stroke="#DD4826" stroke-width="3.42"/>
</svg>
