<svg width="56" height="56" viewBox="0 0 56 56" fill="none" xmlns="http://www.w3.org/2000/svg">
<path d="M28.0002 47.6799C32.1263 47.6799 36.083 47.2723 39.7499 46.5249C44.3302 45.5912 46.6205 45.1243 48.7103 42.4373C50.8002 39.7503 50.8002 36.6659 50.8002 30.4967V26.1031C50.8002 19.934 50.8002 16.8495 48.7103 14.1625C46.6205 11.4755 44.3302 11.0087 39.7499 10.075C36.083 9.32752 32.1263 8.91992 28.0002 8.91992C23.8741 8.91992 19.9173 9.32752 16.2504 10.075C11.6701 11.0087 9.37991 11.4755 7.29004 14.1625C5.2002 16.8495 5.2002 19.934 5.2002 26.1031V30.4967C5.2002 36.6659 5.2002 39.7503 7.29004 42.4373C9.37991 45.1243 11.6701 45.5912 16.2504 46.5249C19.9173 47.2723 23.8741 47.6799 28.0002 47.6799Z" stroke="#DD4826" stroke-width="3.42"/>
<path d="M37.0337 29.0132C36.6954 30.3945 34.8951 31.3865 31.2945 33.3708C27.3782 35.5286 25.4201 36.6077 23.8341 36.192C23.297 36.0511 22.8022 35.8035 22.3868 35.4677C21.1602 34.4761 21.1602 32.4173 21.1602 28.2998C21.1602 24.1824 21.1602 22.1236 22.3868 21.1319C22.8022 20.796 23.297 20.5485 23.8341 20.4077C25.4201 19.992 27.3782 21.071 31.2945 23.2289C34.8951 25.2132 36.6954 26.2052 37.0337 27.5864C37.1489 28.0565 37.1489 28.5431 37.0337 29.0132Z" stroke="#DD4826" stroke-width="3.42" stroke-linejoin="round"/>
</svg>
