<svg width="62" height="36" viewBox="0 0 62 36" fill="none" xmlns="http://www.w3.org/2000/svg">
<path d="M12.3337 33.75H7.00033C5.58584 33.75 4.22928 33.1881 3.22909 32.1879C2.2289 31.1877 1.66699 29.8312 1.66699 28.4167V7.08333C1.66699 5.66885 2.2289 4.31229 3.22909 3.3121C4.22928 2.3119 5.58584 1.75 7.00033 1.75H15.507M39.0003 1.75H44.3337C45.7481 1.75 47.1047 2.3119 48.1049 3.3121C49.1051 4.31229 49.667 5.66885 49.667 7.08333V28.4167C49.667 29.8312 49.1051 31.1877 48.1049 32.1879C47.1047 33.1881 45.7481 33.75 44.3337 33.75H35.827M60.3337 20.4167V15.0833M28.3337 1.75L17.667 17.75H33.667L23.0003 33.75" stroke="#711400" stroke-width="3" stroke-linecap="round" stroke-linejoin="round"/>
</svg>
