<svg width="56" height="59" viewBox="0 0 56 59" fill="none" xmlns="http://www.w3.org/2000/svg">
<path d="M53.6119 28.041L29.1053 52.5477C26.103 55.5499 22.0311 57.2366 17.7853 57.2366C13.5394 57.2366 9.46751 55.5499 6.46526 52.5477C3.46301 49.5454 1.77637 45.4735 1.77637 41.2277C1.77637 36.9818 3.46301 32.9099 6.46526 29.9077L30.9719 5.401C32.9734 3.3995 35.688 2.27507 38.5186 2.27507C41.3491 2.27507 44.0638 3.3995 46.0653 5.401C48.0668 7.4025 49.1912 10.1171 49.1912 12.9477C49.1912 15.7782 48.0668 18.4928 46.0653 20.4943L21.5319 45.001C20.5312 46.0017 19.1739 46.564 17.7586 46.564C16.3433 46.564 14.986 46.0017 13.9853 45.001C12.9845 44.0002 12.4223 42.6429 12.4223 41.2277C12.4223 39.8124 12.9845 38.4551 13.9853 37.4543L36.6253 14.841" stroke="#711400" stroke-width="3" stroke-linecap="round" stroke-linejoin="round"/>
</svg>
