<svg width="55" height="55" viewBox="0 0 55 55" fill="none" xmlns="http://www.w3.org/2000/svg">
<path d="M33.1986 13.5499C32.71 14.0484 32.4364 14.7186 32.4364 15.4166C32.4364 16.1146 32.71 16.7848 33.1986 17.2833L37.4653 21.5499C37.9638 22.0386 38.634 22.3122 39.332 22.3122C40.03 22.3122 40.7002 22.0386 41.1986 21.5499L51.252 11.4966C52.5929 14.4598 52.9989 17.7612 52.4159 20.961C51.8329 24.1608 50.2885 27.1069 47.9887 29.4067C45.6889 31.7065 42.7428 33.2508 39.543 33.8338C36.3433 34.4168 33.0418 34.0108 30.0786 32.6699L11.652 51.0966C10.5911 52.1575 9.15226 52.7535 7.65197 52.7535C6.15168 52.7535 4.71284 52.1575 3.65197 51.0966C2.59111 50.0357 1.99512 48.5969 1.99512 47.0966C1.99512 45.5963 2.59111 44.1575 3.65197 43.0966L22.0786 24.6699C20.7377 21.7068 20.3317 18.4053 20.9148 15.2056C21.4978 12.0058 23.0421 9.05969 25.3419 6.75987C27.6417 4.46004 30.5878 2.91573 33.7876 2.33272C36.9873 1.74972 40.2888 2.15572 43.252 3.49661L33.2253 13.5233L33.1986 13.5499Z" stroke="#711400" stroke-width="3" stroke-linecap="round" stroke-linejoin="round"/>
</svg>
