<svg width="24" height="24" viewBox="0 0 24 24" fill="none" xmlns="http://www.w3.org/2000/svg">
<path d="M20.6255 2.625H3.37549C2.96064 2.625 2.62549 2.96016 2.62549 3.375V20.625C2.62549 21.0398 2.96064 21.375 3.37549 21.375H20.6255C21.0403 21.375 21.3755 21.0398 21.3755 20.625V3.375C21.3755 2.96016 21.0403 2.625 20.6255 2.625ZM18.4599 8.09766H16.9622C15.788 8.09766 15.5606 8.65547 15.5606 9.47578V11.2828H18.3638L17.9981 14.1117H15.5606V21.375H12.638V14.1141H10.1935V11.2828H12.638V9.19687C12.638 6.77578 14.1169 5.45625 16.2778 5.45625C17.3138 5.45625 18.2021 5.53359 18.4622 5.56875V8.09766H18.4599Z" fill="#2E1914" fill-opacity="0.62"/>
</svg>
