<svg width="68" height="49" viewBox="0 0 68 49" fill="none" xmlns="http://www.w3.org/2000/svg">
<path fill-rule="evenodd" clip-rule="evenodd" d="M52.2664 49.0001L46.1395 45.4582L44.1261 48.8171H5.99051C2.06756 48.8171 -0.346921 44.5382 1.68704 41.1923L19.8454 11.3481C21.7797 8.16713 26.389 8.11743 28.3935 11.2555L43.1359 34.332L47.6663 26.8418C49.5507 23.724 54.0331 23.5817 56.1124 26.5752L66.1463 41.0228C68.4452 44.3348 66.0964 48.8623 62.0602 48.9029L52.3729 49.0001C52.3367 49.0001 52.3027 49.0001 52.2664 49.0001ZM45.7344 6.0592C45.7344 2.71331 48.3641 0 51.6053 0C54.8465 0 57.4739 2.71331 57.4739 6.0592C57.4739 9.40734 54.8465 12.1207 51.6053 12.1207C48.3641 12.1207 45.7344 9.40736 45.7344 6.0592Z" fill="#DD4826"/>
</svg>
